<svg xmlns="http://www.w3.org/2000/svg" xmlns:xlink="http://www.w3.org/1999/xlink" width="600" zoomAndPan="magnify"
    viewBox="0 0 450 112.499997" height="150" preserveAspectRatio="xMidYMid meet" version="1.2">
    <defs>
        <clipPath id="dac99be663">
            <path d="M 0.996094 0 L 449.003906 0 L 449.003906 112.003906 L 0.996094 112.003906 Z M 0.996094 0 " />
        </clipPath>
        <clipPath id="0b4b4f8b04">
            <path
                d="M 417.640625 11.199219 L 446.015625 11.199219 L 446.015625 40.320312 L 417.640625 40.320312 Z M 417.640625 11.199219 " />
        </clipPath>
        <clipPath id="64803786f0">
            <path
                d="M 431.828125 11.199219 C 423.992188 11.199219 417.640625 17.691406 417.640625 25.699219 C 417.640625 33.707031 423.992188 40.195312 431.828125 40.195312 C 439.664062 40.195312 446.015625 33.707031 446.015625 25.699219 C 446.015625 17.691406 439.664062 11.199219 431.828125 11.199219 Z M 431.828125 11.199219 " />
        </clipPath>
    </defs>
    <g id="7154c9cfac">
        <g clip-rule="nonzero" clip-path="url(#dac99be663)">
        </g>
        <g clip-rule="nonzero" clip-path="url(#0b4b4f8b04)">
            <g clip-rule="nonzero" clip-path="url(#64803786f0)">
                <path
                    style="fill:none;stroke-width:6;stroke-linecap:butt;stroke-linejoin:miter;stroke:#33334a;stroke-opacity:1;stroke-miterlimit:4;"
                    d="M 19.209515 -0.00181943 C 8.598655 -0.00181943 -0.00217229 8.789432 -0.00217229 19.633033 C -0.00217229 30.476634 8.598655 39.262596 19.209515 39.262596 C 29.820376 39.262596 38.421203 30.476634 38.421203 19.633033 C 38.421203 8.789432 29.820376 -0.00181943 19.209515 -0.00181943 Z M 19.209515 -0.00181943 "
                    transform="matrix(0.738483,0,0,0.738483,417.642229,11.200562)" />
            </g>
        </g>
        <g style="fill:#33334a;fill-opacity:1;">
            <g transform="translate(0.959842, 98.70911)">
                <path style="stroke:none"
                    d="M 32.214844 0 L 42.90625 0 L 31.785156 -18.941406 C 37.523438 -21.59375 41.46875 -27.261719 41.46875 -33.578125 C 41.46875 -42.761719 34.007812 -50.222656 24.753906 -50.222656 L 4.664062 -50.222656 L 4.664062 0 L 14.566406 0 L 14.566406 -17.433594 L 22.097656 -17.433594 Z M 14.566406 -40.96875 L 24.753906 -40.96875 C 28.484375 -40.96875 31.570312 -37.738281 31.570312 -33.578125 C 31.570312 -29.417969 28.484375 -26.117188 24.753906 -26.117188 L 14.566406 -26.117188 Z M 14.566406 -40.96875 " />
            </g>
        </g>
        <g style="fill:#33334a;fill-opacity:1;">
            <g transform="translate(45.010829, 98.70911)">
                <path style="stroke:none"
                    d="M 12.054688 -14.132812 L 39.101562 -14.132812 C 39.316406 -15.355469 39.460938 -16.574219 39.460938 -17.9375 C 39.460938 -28.484375 31.925781 -36.878906 21.308594 -36.878906 C 10.042969 -36.878906 2.367188 -28.625 2.367188 -17.9375 C 2.367188 -7.246094 9.972656 1.003906 22.027344 1.003906 C 28.914062 1.003906 34.292969 -1.792969 37.667969 -6.671875 L 30.207031 -10.976562 C 28.625 -8.898438 25.757812 -7.390625 22.167969 -7.390625 C 17.289062 -7.390625 13.34375 -9.398438 12.054688 -14.132812 Z M 11.910156 -21.308594 C 12.984375 -25.902344 16.359375 -28.554688 21.308594 -28.554688 C 25.183594 -28.554688 29.058594 -26.472656 30.207031 -21.308594 Z M 11.910156 -21.308594 " />
            </g>
        </g>
        <g style="fill:#33334a;fill-opacity:1;">
            <g transform="translate(86.694258, 98.70911)">
                <path style="stroke:none"
                    d="M 8.824219 -40.179688 C 11.980469 -40.179688 14.566406 -42.761719 14.566406 -45.847656 C 14.566406 -48.929688 11.980469 -51.585938 8.824219 -51.585938 C 5.738281 -51.585938 3.15625 -48.929688 3.15625 -45.847656 C 3.15625 -42.761719 5.738281 -40.179688 8.824219 -40.179688 Z M 4.234375 0 L 13.488281 0 L 13.488281 -35.875 L 4.234375 -35.875 Z M 4.234375 0 " />
            </g>
        </g>
        <g style="fill:#33334a;fill-opacity:1;">
            <g transform="translate(104.415093, 98.70911)">
                <path style="stroke:none"
                    d="M 24.179688 -36.878906 C 19.371094 -36.878906 15.640625 -35.085938 13.488281 -31.855469 L 13.488281 -35.875 L 4.234375 -35.875 L 4.234375 0 L 13.488281 0 L 13.488281 -19.371094 C 13.488281 -25.613281 16.859375 -28.269531 21.378906 -28.269531 C 25.542969 -28.269531 28.484375 -25.757812 28.484375 -20.878906 L 28.484375 0 L 37.738281 0 L 37.738281 -22.027344 C 37.738281 -31.570312 31.785156 -36.878906 24.179688 -36.878906 Z M 24.179688 -36.878906 " />
            </g>
        </g>
        <g style="fill:#33334a;fill-opacity:1;">
            <g transform="translate(145.811542, 98.70911)">
                <path style="stroke:none"
                    d="M 23.53125 -42.332031 L 23.53125 -51.226562 C 12.125 -51.945312 6.671875 -46.132812 6.671875 -36.230469 L 6.671875 -35.875 L 1.507812 -35.875 L 1.507812 -26.976562 L 6.671875 -26.976562 L 6.671875 0 L 15.925781 0 L 15.925781 -26.976562 L 23.53125 -26.976562 L 23.53125 -35.875 L 15.925781 -35.875 L 15.925781 -36.230469 C 15.925781 -41.109375 18.726562 -42.6875 23.53125 -42.332031 Z M 23.53125 -42.332031 " />
            </g>
        </g>
        <g style="fill:#33334a;fill-opacity:1;">
            <g transform="translate(169.343665, 98.70911)">
                <path style="stroke:none"
                    d="M 21.308594 1.003906 C 31.855469 1.003906 40.320312 -7.246094 40.320312 -17.9375 C 40.320312 -28.625 31.855469 -36.878906 21.308594 -36.878906 C 10.761719 -36.878906 2.367188 -28.625 2.367188 -17.9375 C 2.367188 -7.246094 10.761719 1.003906 21.308594 1.003906 Z M 21.308594 -8.035156 C 15.855469 -8.035156 11.621094 -12.125 11.621094 -17.9375 C 11.621094 -23.75 15.855469 -27.835938 21.308594 -27.835938 C 26.832031 -27.835938 31.066406 -23.75 31.066406 -17.9375 C 31.066406 -12.125 26.832031 -8.035156 21.308594 -8.035156 Z M 21.308594 -8.035156 " />
            </g>
        </g>
        <g style="fill:#33334a;fill-opacity:1;">
            <g transform="translate(211.959776, 98.70911)">
                <path style="stroke:none"
                    d="M 13.488281 -29.703125 L 13.488281 -35.875 L 4.234375 -35.875 L 4.234375 0 L 13.488281 0 L 13.488281 -17.148438 C 13.488281 -24.679688 19.585938 -26.832031 24.394531 -26.257812 L 24.394531 -36.589844 C 19.875 -36.589844 15.355469 -34.582031 13.488281 -29.703125 Z M 13.488281 -29.703125 " />
            </g>
        </g>
        <g style="fill:#33334a;fill-opacity:1;">
            <g transform="translate(237.500735, 98.70911)">
                <path style="stroke:none"
                    d="M 21.308594 1.003906 C 28.339844 1.003906 34.4375 -2.726562 37.523438 -8.324219 L 29.488281 -12.914062 C 28.054688 -9.972656 24.96875 -8.179688 21.238281 -8.179688 C 15.710938 -8.179688 11.621094 -12.269531 11.621094 -17.9375 C 11.621094 -23.675781 15.710938 -27.765625 21.238281 -27.765625 C 24.894531 -27.765625 27.980469 -25.902344 29.417969 -22.957031 L 37.378906 -27.621094 C 34.4375 -33.148438 28.339844 -36.878906 21.308594 -36.878906 C 10.402344 -36.878906 2.367188 -28.625 2.367188 -17.9375 C 2.367188 -7.246094 10.402344 1.003906 21.308594 1.003906 Z M 21.308594 1.003906 " />
            </g>
        </g>
        <g style="fill:#33334a;fill-opacity:1;">
            <g transform="translate(275.955674, 98.70911)">
                <path style="stroke:none"
                    d="M 12.054688 -14.132812 L 39.101562 -14.132812 C 39.316406 -15.355469 39.460938 -16.574219 39.460938 -17.9375 C 39.460938 -28.484375 31.925781 -36.878906 21.308594 -36.878906 C 10.042969 -36.878906 2.367188 -28.625 2.367188 -17.9375 C 2.367188 -7.246094 9.972656 1.003906 22.027344 1.003906 C 28.914062 1.003906 34.292969 -1.792969 37.667969 -6.671875 L 30.207031 -10.976562 C 28.625 -8.898438 25.757812 -7.390625 22.167969 -7.390625 C 17.289062 -7.390625 13.34375 -9.398438 12.054688 -14.132812 Z M 11.910156 -21.308594 C 12.984375 -25.902344 16.359375 -28.554688 21.308594 -28.554688 C 25.183594 -28.554688 29.058594 -26.472656 30.207031 -21.308594 Z M 11.910156 -21.308594 " />
            </g>
        </g>
        <g style="fill:#33334a;fill-opacity:1;">
            <g transform="translate(317.639103, 98.70911)">
                <path style="stroke:none"
                    d="M 13.488281 -29.703125 L 13.488281 -35.875 L 4.234375 -35.875 L 4.234375 0 L 13.488281 0 L 13.488281 -17.148438 C 13.488281 -24.679688 19.585938 -26.832031 24.394531 -26.257812 L 24.394531 -36.589844 C 19.875 -36.589844 15.355469 -34.582031 13.488281 -29.703125 Z M 13.488281 -29.703125 " />
            </g>
        </g>
        <g style="fill:#33334a;fill-opacity:1;">
            <g transform="translate(343.180063, 98.70911)">
                <path style="stroke:none"
                    d="M 9.613281 0.933594 C 12.984375 0.933594 15.710938 -1.792969 15.710938 -5.164062 C 15.710938 -8.539062 12.984375 -11.265625 9.613281 -11.265625 C 6.242188 -11.265625 3.515625 -8.539062 3.515625 -5.164062 C 3.515625 -1.792969 6.242188 0.933594 9.613281 0.933594 Z M 9.613281 0.933594 " />
            </g>
        </g>
        <g style="fill:#33334a;fill-opacity:1;">
            <g transform="translate(362.407523, 98.70911)">
                <path style="stroke:none"
                    d="M 31.496094 -35.875 L 31.496094 -31.640625 C 28.914062 -34.867188 25.039062 -36.878906 19.800781 -36.878906 C 10.257812 -36.878906 2.367188 -28.625 2.367188 -17.9375 C 2.367188 -7.246094 10.257812 1.003906 19.800781 1.003906 C 25.039062 1.003906 28.914062 -1.003906 31.496094 -4.234375 L 31.496094 0 L 40.753906 0 L 40.753906 -35.875 Z M 21.523438 -7.820312 C 15.855469 -7.820312 11.621094 -11.910156 11.621094 -17.9375 C 11.621094 -23.964844 15.855469 -28.054688 21.523438 -28.054688 C 27.261719 -28.054688 31.496094 -23.964844 31.496094 -17.9375 C 31.496094 -11.910156 27.261719 -7.820312 21.523438 -7.820312 Z M 21.523438 -7.820312 " />
            </g>
        </g>
        <g style="fill:#33334a;fill-opacity:1;">
            <g transform="translate(407.31946, 98.70911)">
                <path style="stroke:none"
                    d="M 8.824219 -40.179688 C 11.980469 -40.179688 14.566406 -42.761719 14.566406 -45.847656 C 14.566406 -48.929688 11.980469 -51.585938 8.824219 -51.585938 C 5.738281 -51.585938 3.15625 -48.929688 3.15625 -45.847656 C 3.15625 -42.761719 5.738281 -40.179688 8.824219 -40.179688 Z M 4.234375 0 L 13.488281 0 L 13.488281 -35.875 L 4.234375 -35.875 Z M 4.234375 0 " />
            </g>
        </g>
        <g style="fill:#33334a;fill-opacity:1;">
            <g transform="translate(425.200198, 29.70117)">
                <path style="stroke:none"
                    d="M 5.21875 0 L 6.949219 0 L 5.148438 -3.066406 C 6.078125 -3.496094 6.714844 -4.414062 6.714844 -5.4375 C 6.714844 -6.925781 5.507812 -8.132812 4.007812 -8.132812 L 0.753906 -8.132812 L 0.753906 0 L 2.359375 0 L 2.359375 -2.824219 L 3.578125 -2.824219 Z M 2.359375 -6.632812 L 4.007812 -6.632812 C 4.613281 -6.632812 5.113281 -6.113281 5.113281 -5.4375 C 5.113281 -4.765625 4.613281 -4.230469 4.007812 -4.230469 L 2.359375 -4.230469 Z M 2.359375 -6.632812 " />
            </g>
        </g>
        <g style="fill:#33334a;fill-opacity:1;">
            <g transform="translate(432.333878, 29.70117)">
                <path style="stroke:none"
                    d="M 5.84375 -4.773438 L 3.925781 -4.773438 L 3.925781 -6.679688 L 2.519531 -6.679688 L 2.519531 -4.773438 L 0.617188 -4.773438 L 0.617188 -3.371094 L 2.519531 -3.371094 L 2.519531 -1.453125 L 3.925781 -1.453125 L 3.925781 -3.371094 L 5.84375 -3.371094 Z M 5.84375 -4.773438 " />
            </g>
        </g>
    </g>
</svg>