<svg xmlns="http://www.w3.org/2000/svg" xmlns:xlink="http://www.w3.org/1999/xlink" width="500" zoomAndPan="magnify" viewBox="0 0 375 374.999991" height="500" preserveAspectRatio="xMidYMid meet" version="1.2"><defs><clipPath id="7511ab65b1"><path d="M 332.234375 128.582031 L 353.230469 128.582031 L 353.230469 150.234375 L 332.234375 150.234375 Z M 332.234375 128.582031 "/></clipPath><clipPath id="7b141ef548"><path d="M 342.734375 128.582031 C 336.933594 128.582031 332.234375 133.386719 332.234375 139.3125 C 332.234375 145.238281 336.933594 150.039062 342.734375 150.039062 C 348.53125 150.039062 353.230469 145.238281 353.230469 139.3125 C 353.230469 133.386719 348.53125 128.582031 342.734375 128.582031 Z M 342.734375 128.582031 "/></clipPath></defs><g id="4cbe5e2c81"><g clip-rule="nonzero" clip-path="url(#7511ab65b1)"><g clip-rule="nonzero" clip-path="url(#7b141ef548)"><path style="fill:none;stroke-width:6;stroke-linecap:butt;stroke-linejoin:miter;stroke:#33334a;stroke-opacity:1;stroke-miterlimit:4;" d="M 14.007041 -0.00175499 C 6.268349 -0.00175499 -0.000772275 6.40807 -0.000772275 14.313521 C -0.000772275 22.218972 6.268349 28.623586 14.007041 28.623586 C 21.740521 28.623586 28.009643 22.218972 28.009643 14.313521 C 28.009643 6.40807 21.740521 -0.00175499 14.007041 -0.00175499 Z M 14.007041 -0.00175499 " transform="matrix(0.749582,0,0,0.749582,332.234954,128.583347)"/></g></g><g style="fill:#33334a;fill-opacity:1;"><g transform="translate(27.078586, 192.669866)"><path style="stroke:none" d="M 23.59375 0 L 31.421875 0 L 23.277344 -13.871094 C 27.480469 -15.816406 30.371094 -19.964844 30.371094 -24.589844 C 30.371094 -31.316406 24.90625 -36.78125 18.128906 -36.78125 L 3.414062 -36.78125 L 3.414062 0 L 10.667969 0 L 10.667969 -12.769531 L 16.183594 -12.769531 Z M 10.667969 -30.003906 L 18.128906 -30.003906 C 20.859375 -30.003906 23.117188 -27.636719 23.117188 -24.589844 C 23.117188 -21.542969 20.859375 -19.125 18.128906 -19.125 L 10.667969 -19.125 Z M 10.667969 -30.003906 "/></g></g><g style="fill:#33334a;fill-opacity:1;"><g transform="translate(59.339019, 192.669866)"><path style="stroke:none" d="M 8.828125 -10.351562 L 28.636719 -10.351562 C 28.792969 -11.246094 28.898438 -12.136719 28.898438 -13.136719 C 28.898438 -20.859375 23.382812 -27.007812 15.605469 -27.007812 C 7.355469 -27.007812 1.734375 -20.964844 1.734375 -13.136719 C 1.734375 -5.308594 7.304688 0.734375 16.128906 0.734375 C 21.175781 0.734375 25.117188 -1.3125 27.585938 -4.886719 L 22.121094 -8.039062 C 20.964844 -6.515625 18.863281 -5.410156 16.234375 -5.410156 C 12.664062 -5.410156 9.773438 -6.882812 8.828125 -10.351562 Z M 8.722656 -15.605469 C 9.511719 -18.96875 11.980469 -20.914062 15.605469 -20.914062 C 18.441406 -20.914062 21.28125 -19.386719 22.121094 -15.605469 Z M 8.722656 -15.605469 "/></g></g><g style="fill:#33334a;fill-opacity:1;"><g transform="translate(89.865588, 192.669866)"><path style="stroke:none" d="M 6.460938 -29.425781 C 8.773438 -29.425781 10.667969 -31.316406 10.667969 -33.574219 C 10.667969 -35.835938 8.773438 -37.777344 6.460938 -37.777344 C 4.203125 -37.777344 2.3125 -35.835938 2.3125 -33.574219 C 2.3125 -31.316406 4.203125 -29.425781 6.460938 -29.425781 Z M 3.101562 0 L 9.878906 0 L 9.878906 -26.273438 L 3.101562 -26.273438 Z M 3.101562 0 "/></g></g><g style="fill:#33334a;fill-opacity:1;"><g transform="translate(102.843318, 192.669866)"><path style="stroke:none" d="M 17.707031 -27.007812 C 14.1875 -27.007812 11.453125 -25.695312 9.878906 -23.328125 L 9.878906 -26.273438 L 3.101562 -26.273438 L 3.101562 0 L 9.878906 0 L 9.878906 -14.1875 C 9.878906 -18.757812 12.347656 -20.703125 15.65625 -20.703125 C 18.707031 -20.703125 20.859375 -18.863281 20.859375 -15.289062 L 20.859375 0 L 27.636719 0 L 27.636719 -16.128906 C 27.636719 -23.117188 23.277344 -27.007812 17.707031 -27.007812 Z M 17.707031 -27.007812 "/></g></g><g style="fill:#33334a;fill-opacity:1;"><g transform="translate(133.159719, 192.669866)"><path style="stroke:none" d="M 17.234375 -31 L 17.234375 -37.515625 C 8.878906 -38.042969 4.886719 -33.785156 4.886719 -26.535156 L 4.886719 -26.273438 L 1.101562 -26.273438 L 1.101562 -19.757812 L 4.886719 -19.757812 L 4.886719 0 L 11.664062 0 L 11.664062 -19.757812 L 17.234375 -19.757812 L 17.234375 -26.273438 L 11.664062 -26.273438 L 11.664062 -26.535156 C 11.664062 -30.105469 13.714844 -31.261719 17.234375 -31 Z M 17.234375 -31 "/></g></g><g style="fill:#33334a;fill-opacity:1;"><g transform="translate(150.393305, 192.669866)"><path style="stroke:none" d="M 15.605469 0.734375 C 23.328125 0.734375 29.527344 -5.308594 29.527344 -13.136719 C 29.527344 -20.964844 23.328125 -27.007812 15.605469 -27.007812 C 7.882812 -27.007812 1.734375 -20.964844 1.734375 -13.136719 C 1.734375 -5.308594 7.882812 0.734375 15.605469 0.734375 Z M 15.605469 -5.886719 C 11.613281 -5.886719 8.511719 -8.878906 8.511719 -13.136719 C 8.511719 -17.390625 11.613281 -20.386719 15.605469 -20.386719 C 19.652344 -20.386719 22.75 -17.390625 22.75 -13.136719 C 22.75 -8.878906 19.652344 -5.886719 15.605469 -5.886719 Z M 15.605469 -5.886719 "/></g></g><g style="fill:#33334a;fill-opacity:1;"><g transform="translate(181.602917, 192.669866)"><path style="stroke:none" d="M 9.878906 -21.753906 L 9.878906 -26.273438 L 3.101562 -26.273438 L 3.101562 0 L 9.878906 0 L 9.878906 -12.558594 C 9.878906 -18.074219 14.34375 -19.652344 17.863281 -19.230469 L 17.863281 -26.796875 C 14.554688 -26.796875 11.246094 -25.324219 9.878906 -21.753906 Z M 9.878906 -21.753906 "/></g></g><g style="fill:#33334a;fill-opacity:1;"><g transform="translate(200.307661, 192.669866)"><path style="stroke:none" d="M 15.605469 0.734375 C 20.753906 0.734375 25.21875 -1.996094 27.480469 -6.09375 L 21.59375 -9.457031 C 20.542969 -7.304688 18.285156 -5.988281 15.550781 -5.988281 C 11.507812 -5.988281 8.511719 -8.984375 8.511719 -13.136719 C 8.511719 -17.339844 11.507812 -20.335938 15.550781 -20.335938 C 18.230469 -20.335938 20.492188 -18.96875 21.542969 -16.8125 L 27.375 -20.230469 C 25.21875 -24.273438 20.753906 -27.007812 15.605469 -27.007812 C 7.617188 -27.007812 1.734375 -20.964844 1.734375 -13.136719 C 1.734375 -5.308594 7.617188 0.734375 15.605469 0.734375 Z M 15.605469 0.734375 "/></g></g><g style="fill:#33334a;fill-opacity:1;"><g transform="translate(228.469867, 192.669866)"><path style="stroke:none" d="M 8.828125 -10.351562 L 28.636719 -10.351562 C 28.792969 -11.246094 28.898438 -12.136719 28.898438 -13.136719 C 28.898438 -20.859375 23.382812 -27.007812 15.605469 -27.007812 C 7.355469 -27.007812 1.734375 -20.964844 1.734375 -13.136719 C 1.734375 -5.308594 7.304688 0.734375 16.128906 0.734375 C 21.175781 0.734375 25.117188 -1.3125 27.585938 -4.886719 L 22.121094 -8.039062 C 20.964844 -6.515625 18.863281 -5.410156 16.234375 -5.410156 C 12.664062 -5.410156 9.773438 -6.882812 8.828125 -10.351562 Z M 8.722656 -15.605469 C 9.511719 -18.96875 11.980469 -20.914062 15.605469 -20.914062 C 18.441406 -20.914062 21.28125 -19.386719 22.121094 -15.605469 Z M 8.722656 -15.605469 "/></g></g><g style="fill:#33334a;fill-opacity:1;"><g transform="translate(258.996436, 192.669866)"><path style="stroke:none" d="M 9.878906 -21.753906 L 9.878906 -26.273438 L 3.101562 -26.273438 L 3.101562 0 L 9.878906 0 L 9.878906 -12.558594 C 9.878906 -18.074219 14.34375 -19.652344 17.863281 -19.230469 L 17.863281 -26.796875 C 14.554688 -26.796875 11.246094 -25.324219 9.878906 -21.753906 Z M 9.878906 -21.753906 "/></g></g><g style="fill:#33334a;fill-opacity:1;"><g transform="translate(277.70118, 192.669866)"><path style="stroke:none" d="M 7.039062 0.683594 C 9.511719 0.683594 11.507812 -1.3125 11.507812 -3.78125 C 11.507812 -6.253906 9.511719 -8.25 7.039062 -8.25 C 4.570312 -8.25 2.574219 -6.253906 2.574219 -3.78125 C 2.574219 -1.3125 4.570312 0.683594 7.039062 0.683594 Z M 7.039062 0.683594 "/></g></g><g style="fill:#33334a;fill-opacity:1;"><g transform="translate(291.782276, 192.669866)"><path style="stroke:none" d="M 23.066406 -26.273438 L 23.066406 -23.171875 C 21.175781 -25.535156 18.335938 -27.007812 14.5 -27.007812 C 7.511719 -27.007812 1.734375 -20.964844 1.734375 -13.136719 C 1.734375 -5.308594 7.511719 0.734375 14.5 0.734375 C 18.335938 0.734375 21.175781 -0.734375 23.066406 -3.101562 L 23.066406 0 L 29.84375 0 L 29.84375 -26.273438 Z M 15.761719 -5.726562 C 11.613281 -5.726562 8.511719 -8.722656 8.511719 -13.136719 C 8.511719 -17.550781 11.613281 -20.542969 15.761719 -20.542969 C 19.964844 -20.542969 23.066406 -17.550781 23.066406 -13.136719 C 23.066406 -8.722656 19.964844 -5.726562 15.761719 -5.726562 Z M 15.761719 -5.726562 "/></g></g><g style="fill:#33334a;fill-opacity:1;"><g transform="translate(324.673221, 192.669866)"><path style="stroke:none" d="M 6.460938 -29.425781 C 8.773438 -29.425781 10.667969 -31.316406 10.667969 -33.574219 C 10.667969 -35.835938 8.773438 -37.777344 6.460938 -37.777344 C 4.203125 -37.777344 2.3125 -35.835938 2.3125 -33.574219 C 2.3125 -31.316406 4.203125 -29.425781 6.460938 -29.425781 Z M 3.101562 0 L 9.878906 0 L 9.878906 -26.273438 L 3.101562 -26.273438 Z M 3.101562 0 "/></g></g><g style="fill:#33334a;fill-opacity:1;"><g transform="translate(337.768048, 142.132397)"><path style="stroke:none" d="M 3.820312 0 L 5.089844 0 L 3.769531 -2.246094 C 4.449219 -2.5625 4.917969 -3.234375 4.917969 -3.980469 C 4.917969 -5.070312 4.035156 -5.957031 2.9375 -5.957031 L 0.554688 -5.957031 L 0.554688 0 L 1.726562 0 L 1.726562 -2.066406 L 2.621094 -2.066406 Z M 1.726562 -4.859375 L 2.9375 -4.859375 C 3.378906 -4.859375 3.742188 -4.476562 3.742188 -3.980469 C 3.742188 -3.488281 3.378906 -3.097656 2.9375 -3.097656 L 1.726562 -3.097656 Z M 1.726562 -4.859375 "/></g></g><g style="fill:#33334a;fill-opacity:1;"><g transform="translate(342.992349, 142.132397)"><path style="stroke:none" d="M 4.28125 -3.496094 L 2.875 -3.496094 L 2.875 -4.894531 L 1.847656 -4.894531 L 1.847656 -3.496094 L 0.449219 -3.496094 L 0.449219 -2.46875 L 1.847656 -2.46875 L 1.847656 -1.0625 L 2.875 -1.0625 L 2.875 -2.46875 L 4.28125 -2.46875 Z M 4.28125 -3.496094 "/></g></g></g></svg>